<?xml version="1.0" encoding="UTF-8"?><svg xmlns="http://www.w3.org/2000/svg" viewBox="0 0 120 79.3333"><defs><style>.c{fill:#cf0a2c;}</style></defs><g id="a"/><g id="b"><path class="c" d="M93.0859,32.9336c5.5859,0,10.3477,1.9707,14.2871,5.9082,3.9375,3.9395,5.9082,8.7012,5.9082,14.2871s-1.9707,10.3496-5.9082,14.2871-8.7012,5.9082-14.2871,5.9082c-5.5156,0-10.2422-1.9688-14.1797-5.9082-3.9395-3.9375-5.9453-8.7012-6.0156-14.2871,0-.2852,.0166-.5723,.0537-.8594,.0352-.2852,.0537-.5723,.0537-.8594,.3574-3.5078,1.5039-6.6768,3.4375-9.5068,1.9336-2.8281,4.4043-5.0303,7.4121-6.6064l-1.5039-2.6855-.5371-1.3965-24.0625,22.8809h-.1074c.3574,.4297,.626,.9316,.8057,1.5039,.1777,.5742,.2686,1.1465,.2686,1.7188,0,.7168-.126,1.3965-.376,2.041-.252,.6445-.6279,1.2188-1.1279,1.7188l2.4707,3.7598h1.6113c.3574,0,.6445,.126,.8594,.376,.2148,.252,.3223,.5205,.3223,.8057,0,.3594-.1074,.6631-.3223,.9131-.2148,.252-.502,.376-.8594,.376h-5.1562c-.3594,0-.6445-.124-.8594-.376-.2148-.25-.3223-.5537-.3223-.9131,0-.2852,.1074-.5537,.3223-.8057,.2148-.25,.5-.376,.8594-.376h.6445l-1.6113-2.3633v-.1074c-.2871,.1445-.5908,.252-.9131,.3223-.3223,.0723-.6631,.1074-1.0205,.1074-1.5039,0-2.793-.5371-3.8672-1.6113s-1.6113-2.3633-1.6113-3.8672v-.1074l-1.0742-.2148v.1074c-.9316,4.6562-3.2412,8.5234-6.9287,11.6016-3.6895,3.0801-7.9678,4.6191-12.8369,4.6191-5.5859,0-10.3496-1.9688-14.2871-5.9082-3.9395-3.9375-5.9082-8.7012-5.9082-14.2871,.0703-5.1562,1.8428-9.6143,5.3174-13.374,3.4727-3.7598,7.7158-5.8896,12.7295-6.3916,.3574-.0703,.7148-.1074,1.0742-.1074h1.0742c.2852,0,.5908,.0186,.9131,.0537,.3223,.0371,.6611,.0537,1.0205,.0537h.4297c.2852,0,.5537,.0186,.8057,.0537,.25,.0371,.4834,.0908,.6982,.1611h.3223c.2852,.0723,.5723,.1445,.8594,.2148,.2852,.0723,.5723,.1445,.8594,.2148h.2148c.6445,.2148,1.252,.4482,1.8262,.6982,.5723,.252,1.1094,.5205,1.6113,.8057h.1074c.3574,.2148,.6982,.4297,1.0205,.6445s.626,.4297,.9131,.6445l5.0488-6.4453-.3223-1.0742-3.1152,.2148-.2148-3.4375,2.2559-.1074-1.1816-3.8672h-3.4375c-.1445,0-.2686-.0166-.376-.0537-.1074-.0352-.1982-.0889-.2686-.1611-1.0742-.8594-1.665-1.5391-1.7725-2.041-.1074-.5-.0908-.8594,.0537-1.0742,.2852-.5723,.7686-.8408,1.4502-.8057,.6797,.0371,1.3779,.1611,2.0947,.376l-.4297-.1074c1.8613,.502,3.7764,.8965,5.7471,1.1816,1.9688,.2871,4.0283,.502,6.1768,.6445,.2852,0,.5186,.1074,.6982,.3223,.1777,.2148,.2686,.4668,.2686,.752,0,.2871-.0908,.5205-.2686,.6982-.1797,.1797-.4131,.2686-.6982,.2686h-6.7676l1.1816,3.6523,33.8379-2.4707-.5371-1.2891,.6445-.2148-2.2559-5.4785,2.9004-1.3965v-.4297c0-.4297,.1426-.7871,.4297-1.0742,.2852-.2852,.6445-.4297,1.0742-.4297s.7871,.1445,1.0742,.4297c.2852,.2871,.4297,.6445,.4297,1.0742s-.1445,.7891-.4297,1.0742c-.2871,.2871-.6445,.4297-1.0742,.4297h-.1074l-1.3965,1.3965,1.3965,3.4375,.752-.3223,.9668,2.4707,2.6855-.3223,.2148,3.4375-1.5039,.2148,.3223,.752,.1074,.4297,2.4707,6.6602h-.2148c1.0742-.3574,2.165-.6445,3.2764-.8594,1.1094-.2148,2.2373-.3223,3.3838-.3223ZM26.9141,70.209c4.082,0,7.6807-1.2891,10.7959-3.8672s5.0654-5.8359,5.8545-9.7754l-12.7832-1.9336c-.2871,.8594-.8057,1.5576-1.5576,2.0947s-1.5947,.8057-2.5244,.8057c-1.1465,0-2.1484-.4297-3.0078-1.2891s-1.2891-1.8613-1.2891-3.0078c0-1.2168,.4297-2.2373,1.2891-3.0615,.8594-.8223,1.8613-1.2354,3.0078-1.2354,.4297,0,.8057,.0371,1.1279,.1074,.3223,.0723,.626,.2148,.9131,.4297l7.9492-10.2051h.1074c-1.4336-1.002-2.9912-1.7891-4.6729-2.3633-1.6836-.5723-3.4561-.8594-5.3174-.8594-4.7266,0-8.7549,1.665-12.085,4.9951s-4.9951,7.3584-4.9951,12.085,1.665,8.7549,4.9951,12.085,7.3584,4.9951,12.085,4.9951h.1074Zm-5.248-49.7637h-5.6319l3.54-10.0569h7.9651l-3.54,6.1146h6.5973l-11.4246,13.1947,2.4941-9.2524Zm22.2206,34.4024v-1.8262c0-2.5781-.5205-4.9766-1.5576-7.1973-1.0391-2.2188-2.4893-4.1172-4.3506-5.6934l-7.9492,10.3125c.2852,.3594,.5186,.752,.6982,1.1816,.1777,.4297,.2686,.8594,.2686,1.2891l12.8906,1.9336Zm4.2969,.752c.2148-.6445,.5371-1.2168,.9668-1.7188,.4297-.5,.9297-.8945,1.5039-1.1816l-6.2305-20.4102-4.4043,5.5859c.5,.3594,.9482,.752,1.3428,1.1816,.3926,.4297,.7686,.8594,1.1279,1.2891,.2148,.2148,.4111,.4668,.5908,.752,.1777,.2871,.376,.5371,.5908,.752h-.1074c1.1445,1.5762,2.0225,3.3301,2.6318,5.2637,.6074,1.9336,.9131,3.9395,.9131,6.0156,0,.3594-.0186,.7354-.0537,1.1279-.0371,.3945-.0537,.7705-.0537,1.1279l1.1816,.2148Zm32.334-27.1777l-.752-1.9336-34.0527,2.5781,6.9824,22.7734h.5371c.4297,0,.8223,.0371,1.1816,.1074,.3574,.0723,.7148,.1797,1.0742,.3223l25.0293-23.8477Zm-32.7637,2.6855l6.123,19.873,1.1816,.2148,1.1816-3.0078c-2.3633-7.8047-3.582-11.8516-3.6523-12.1387l-.1074-.2148c-.2148-.7871-.4668-1.5205-.752-2.2021-.2871-.6797-.5742-1.3057-.8594-1.8799-.3594-.2852-.752-.5371-1.1816-.752s-.8594-.3926-1.2891-.5371c-.2148,0-.4297,.2148-.6445,.6445Zm45.332,38.9941c4.7266,0,8.7549-1.665,12.085-4.9951s4.9951-7.3584,4.9951-12.085c0-4.6543-1.665-8.6475-4.9951-11.9775s-7.3584-4.9951-12.085-4.9951c-1.0039,0-1.9521,.0723-2.8467,.2148-.8965,.1445-1.7725,.3594-2.6318,.6445l6.6602,15.6836c0,.0723,.0166,.1611,.0537,.2686,.0352,.1074,.0537,.1982,.0537,.2686,0,.2871-.0723,.5371-.2148,.752-.1445,.2148-.3223,.3594-.5371,.4297-.0723,0-.1611,.0186-.2686,.0537-.1074,.0371-.1982,.0537-.2686,.0537-.2148,0-.4297-.0703-.6445-.2148-.2148-.1426-.3945-.3223-.5371-.5371l-6.5527-15.6836h-.1074c-2.7227,1.4336-4.9414,3.4912-6.6602,6.1768s-2.5781,5.6768-2.5781,8.9697c0,4.7266,1.665,8.7549,4.9951,12.085s7.3584,4.9951,12.085,4.9951v-.1074Z"/></g></svg>