<?xml version="1.0" encoding="UTF-8"?><svg xmlns="http://www.w3.org/2000/svg" viewBox="0 0 120 79.3333"><defs><style>.c{fill:#cf0a2c;}</style></defs><g id="a"/><g id="b"><path class="c" d="M92.9154,30.0332h.1074c2.9355,0,5.7285,.5742,8.3789,1.7188,2.6484,1.1465,4.9414,2.7041,6.875,4.6729,1.9336,1.9707,3.4727,4.2432,4.6191,6.8213,1.1445,2.6504,1.7188,5.4785,1.7188,8.4863,0,2.9375-.5742,5.7305-1.7188,8.3789-1.1465,2.5781-2.6855,4.8525-4.6191,6.8213-1.9336,1.9707-4.2266,3.5283-6.875,4.6729-2.6504,1.1465-5.4434,1.7188-8.3789,1.7188-3.0078,0-5.8379-.5723-8.4863-1.7188-2.5781-1.1445-4.8525-2.7021-6.8213-4.6729-1.9707-1.9688-3.5283-4.2432-4.6729-6.8213-1.1465-2.6484-1.7188-5.4414-1.7188-8.3789,0-4.1523,1.0742-7.9307,3.2227-11.333,2.1484-3.4004,4.9414-6.0322,8.3789-7.8955l-.9668-3.5449-19.6582,21.9141c.5,.4297,.876,.9854,1.1279,1.665,.25,.6816,.376,1.3799,.376,2.0947,0,.7891-.1445,1.5225-.4297,2.2021-.2871,.6816-.6816,1.2725-1.1816,1.7725l2.5781,3.8672h1.7188c.3574,0,.6445,.126,.8594,.376,.2148,.252,.3223,.5205,.3223,.8057,0,.3594-.1074,.6631-.3223,.9131-.2148,.252-.502,.376-.8594,.376h-5.1562c-.3594,0-.6445-.124-.8594-.376-.2148-.25-.3223-.5537-.3223-.9131,0-.2852,.1074-.5537,.3223-.8057,.2148-.25,.5-.376,.8594-.376h.5371l-1.7188-2.5781c-.2871,.1445-.6094,.252-.9668,.3223-.3594,.0723-.7168,.1074-1.0742,.1074-1.3613,0-2.5781-.4648-3.6523-1.3965-1.0742-.9297-1.7188-2.041-1.9336-3.3301l-1.7188-.2148v.1074c-.8594,5.0859-3.2949,9.3291-7.3047,12.7295-4.0117,3.4023-8.666,5.1025-13.9648,5.1025-3.0078,0-5.8008-.5723-8.3789-1.7188-2.6504-1.1445-4.96-2.7021-6.9287-4.6729-1.9707-1.9688-3.4912-4.2432-4.5654-6.8213-1.1465-2.6484-1.7188-5.4785-1.7188-8.4863,0-2.9355,.5723-5.7285,1.7188-8.3789,1.0742-2.6484,2.5947-4.9414,4.5654-6.875,1.9688-1.9336,4.2783-3.4727,6.9287-4.6191,2.5781-1.1445,5.3711-1.7188,8.3789-1.7188,2.5781,0,5.0117,.4131,7.3047,1.2354,2.291,.8242,4.332,1.9873,6.123,3.4912,.6445-.8594,1.2705-1.7354,1.8799-2.6318,.6074-.8945,1.1982-1.8076,1.7725-2.7393l-4.6191-13.1055v-.4297h-3.4375c-.1445,0-.2686-.0166-.376-.0537-.1074-.0352-.1982-.0889-.2686-.1611-1.0742-.8594-1.665-1.5205-1.7725-1.9873-.1074-.4648-.0908-.8408,.0537-1.1279,.2852-.5723,.7686-.8223,1.4502-.752,.6797,.0723,1.3779,.1797,2.0947,.3223h-.4297c1.8613,.4297,3.7764,.8057,5.7471,1.1279,1.9688,.3223,3.9912,.5205,6.0693,.5908,.2852,0,.5371,.1074,.752,.3223s.3223,.4668,.3223,.752c0,.2871-.1074,.5371-.3223,.752s-.4668,.3223-.752,.3223h-5.9082l2.3633,6.6602,32.0117-2.041-1.6113-5.6934h9.2383c1.0742,0,2.1299,.1074,3.1689,.3223,1.0371,.2148,1.9873,.5371,2.8467,.9668h.1074c.6445,.3594,1.1982,.8594,1.665,1.5039,.4648,.6445,.6982,1.3965,.6982,2.2559,0,1.5762-.7891,3.0264-2.3633,4.3506-1.5762,1.3262-3.3301,1.9873-5.2637,1.9873-.4297,0-.7705-.1426-1.0205-.4297-.252-.2852-.376-.6074-.376-.9668,0-.4297,.124-.7686,.376-1.0205,.25-.25,.5908-.376,1.0205-.376,1.2168,0,2.3447-.4111,3.3838-1.2354,1.0371-.8223,1.5576-1.5928,1.5576-2.3096,0-.1426-.0537-.3223-.1611-.5371s-.4131-.4648-.9131-.752h.1074c-.7168-.3574-1.4873-.6074-2.3096-.752-.8242-.1426-1.665-.2148-2.5244-.2148h-5.5859l3.8672,13.75h-.1074c1.2168-.4297,2.4521-.7686,3.7061-1.0205,1.252-.25,2.5596-.376,3.9209-.376h-.1074ZM29.6439,68.8125c4.1523,0,7.8047-1.3057,10.957-3.9209,3.1504-2.6133,5.1191-5.9248,5.9082-9.9365l-14.8242-1.5039c-.2148,.2871-.502,.5205-.8594,.6982-.3594,.1797-.752,.2686-1.1816,.2686h-.1074c-.7891,0-1.4502-.2686-1.9873-.8057s-.8057-1.1631-.8057-1.8799c0-.7148,.2686-1.3428,.8057-1.8799s1.1982-.8057,1.9873-.8057c.1426,0,.3223,.0186,.5371,.0537,.2148,.0371,.3926,.0908,.5371,.1611,1.7188-1.7188,3.3838-3.4727,4.9951-5.2637,1.6113-1.7891,3.2041-3.6875,4.7803-5.6934l.1074,.1074c-1.5039-1.2168-3.1875-2.1836-5.0488-2.9004-1.8633-.7148-3.832-1.0742-5.9082-1.0742-4.7266,0-8.7734,1.6836-12.1387,5.0488-3.3672,3.3672-5.0488,7.4121-5.0488,12.1387,0,4.7988,1.6816,8.8623,5.0488,12.1924,3.3652,3.3301,7.4121,4.9951,12.1387,4.9951h.1074Zm17.1875-17.0801c0-2.291-.4131-4.4395-1.2354-6.4453-.8242-2.0039-1.9521-3.7598-3.3838-5.2637l-.2148,.2148c-1.4336,1.791-2.9189,3.5283-4.458,5.21-1.541,1.6836-3.1338,3.3486-4.7803,4.9951l14.0723,1.3965v-.1074Zm6.2305,.752c.1426-.3574,.3037-.6611,.4834-.9131,.1777-.25,.4111-.5186,.6982-.8057l-6.5527-18.3691c-.4297,.6445-.8779,1.3076-1.3428,1.9873-.4668,.6816-.9131,1.3428-1.3428,1.9873,1.9336,2.0059,3.4727,4.3154,4.6191,6.9287,1.1445,2.6152,1.7188,5.3896,1.7188,8.3252v.6445l1.8262,.2148h-.1074Zm27.9297-27.0703l-.5371-1.8262-31.7969,2.041,8.2715,23.6328h-.1074c.2852-.0703,.5371-.124,.752-.1611,.2148-.0352,.4648-.0537,.752-.0537,.2148,0,.4463,.0186,.6982,.0537,.25,.0371,.4834,.0908,.6982,.1611l21.2695-23.8477Zm-20.0879,30.9375h-.1074c.2148-.2148,.3574-.4648,.4297-.752,.0703-.2852,.1074-.5723,.1074-.8594v-.1074c0-.8594-.3057-1.5928-.9131-2.2021-.6094-.6074-1.3428-.9131-2.2021-.9131-.7891,0-1.4873,.3057-2.0947,.9131-.6094,.6094-.9131,1.3428-.9131,2.2021,0,.7891,.3037,1.4873,.9131,2.0947,.6074,.6094,1.3057,.9131,2.0947,.9131h.6445l-1.5039-2.3633c-.0723-.0703-.126-.1611-.1611-.2686-.0371-.1074-.0537-.2314-.0537-.376,0-.2852,.1074-.5537,.3223-.8057,.2148-.25,.5-.376,.8594-.376,.2148,0,.4111,.0537,.5908,.1611,.1777,.1074,.3037,.2334,.376,.376l1.6113,2.3633Zm32.0117,12.5684c4.7266,0,8.7715-1.6816,12.1387-5.0488,3.3652-3.3652,5.0488-7.4121,5.0488-12.1387s-1.6836-8.7715-5.0488-12.1387c-3.3672-3.3652-7.4121-5.0488-12.1387-5.0488-1.0742,0-2.1133,.0908-3.1152,.2686-1.0039,.1797-1.9707,.4482-2.9004,.8057,.6445,2.293,1.4131,4.7266,2.3096,7.3047,.8945,2.5781,1.8428,4.6562,2.8467,6.2305,.1426-.0703,.2852-.1074,.4297-.1074h.4297c.7148,0,1.3428,.252,1.8799,.752,.5371,.502,.8057,1.1465,.8057,1.9336,0,.7168-.2686,1.3428-.8057,1.8799s-1.165,.8057-1.8799,.8057c-.7168,0-1.3428-.2686-1.8799-.8057s-.8057-1.1631-.8057-1.8799c0-.2148,.0166-.4111,.0537-.5908,.0352-.1777,.0889-.3389,.1611-.4834-1.2891-1.7188-2.4541-3.9209-3.4912-6.6064-1.0391-2.6855-1.8799-5.1025-2.5244-7.251l-.1074,.1074c-2.5078,1.5039-4.5303,3.5449-6.0693,6.123-1.541,2.5781-2.3096,5.4434-2.3096,8.5938,0,4.7266,1.665,8.7734,4.9951,12.1387,3.3301,3.3672,7.3584,5.0488,12.085,5.0488l-.1074,.1074Z"/><polygon class="c" points="9.2593 73.3567 7.5817 67.0957 10.7756 65.4181 18.3698 73.3242 9.2593 73.3567"/><polygon class="c" points="47.9839 74.0171 49.6599 71.0018 46.9249 68.2118 41.9477 71.308 47.9839 74.0171"/><polygon class="c" points="111.8258 73.3459 112.9467 69.1623 108.7632 68.0413 105.7381 73.3242 111.8258 73.3459"/><polygon class="c" points="52.3669 73.3633 51.2934 70.3543 54.5956 69.3415 57.2398 73.067 52.3669 73.3633"/><polygon class="c" points="58.9203 72.8677 58.5239 69.7316 62.0072 69.4936 63.7963 73.6699 58.9203 72.8677"/><polygon class="c" points="65.0826 72.5671 64.651 69.6929 68.4344 69.714 70.3789 73.6275 65.0826 72.5671"/><polygon class="c" points="3.3233 72.5671 2.8917 69.6929 6.6751 69.714 8.6197 73.6275 3.3233 72.5671"/><polygon class="c" points="71.2472 73.3794 70.0304 70.5251 73.4023 69.3934 76.2662 72.866 71.2472 73.3794"/><polygon class="c" points="77.633 73.7566 75.8155 71.1943 78.8068 69.3515 82.3504 72.172 77.633 73.7566"/></g></svg>