<?xml version="1.0" encoding="UTF-8"?><svg xmlns="http://www.w3.org/2000/svg" viewBox="0 0 120 79.3333"><defs><style>.c{fill:#cf0a2c;}</style></defs><g id="a"/><g id="b"><path class="c" d="M85.9424,46.0391c3.7227,0,6.9287,1.3428,9.6143,4.0283s4.0283,5.8916,4.0283,9.6143c0,3.7969-1.3428,7.0195-4.0283,9.668-2.6855,2.6504-5.8916,3.9746-9.6143,3.9746-3.7969,0-7.0195-1.3242-9.668-3.9746-2.6504-2.6484-3.9746-5.8711-3.9746-9.668,0-2.6484,.7148-5.0654,2.1484-7.251,1.4316-2.1836,3.293-3.8486,5.5859-4.9951l-2.3633-6.4453-18.1543,16.1133c.3574,.4297,.6074,.9131,.752,1.4502,.1426,.5371,.2148,1.0928,.2148,1.665,0,.7168-.126,1.3965-.376,2.041-.252,.6445-.6279,1.2188-1.1279,1.7188l2.4707,3.7598h1.6113c.2852,0,.5537,.126,.8057,.376,.25,.252,.376,.5205,.376,.8057,0,.3594-.126,.6445-.376,.8594-.252,.2148-.5205,.3223-.8057,.3223h-5.1562c-.3594,0-.6445-.1074-.8594-.3223s-.3223-.5-.3223-.8594c0-.2852,.1074-.5537,.3223-.8057,.2148-.25,.5-.376,.8594-.376h.6445l-1.6113-2.4707c-.2871,.1445-.5908,.252-.9131,.3223-.3223,.0723-.6631,.1074-1.0205,.1074-1.3613,0-2.543-.4463-3.5449-1.3428-1.0039-.8945-1.6113-1.9873-1.8262-3.2764h-2.041c-.3594,3.4375-1.8262,6.3379-4.4043,8.7012s-5.623,3.5449-9.1309,3.5449c-3.7969,0-7.0195-1.3242-9.668-3.9746-2.6504-2.6484-3.9746-5.8711-3.9746-9.668,0-3.7227,1.3242-6.9287,3.9746-9.6143,2.6484-2.6855,5.8711-4.0283,9.668-4.0283,2.2188,0,4.2598,.4834,6.123,1.4502,1.8613,.9668,3.4375,2.2744,4.7266,3.9209l5.1562-3.1152-2.2559-8.2715v-.3223l-3.5449,.6445h-.2148c-.1445,0-.2871-.0352-.4297-.1074-.1445-.0703-.2871-.1426-.4297-.2148-.9316-.7148-1.541-1.3594-1.8262-1.9336-.2871-.5723-.2871-1.1094,0-1.6113,.3574-.7148,.9482-1.0205,1.7725-.9131,.8223,.1074,1.5205,.2334,2.0947,.376h-.1074c.6445,.1445,1.3242,.2686,2.041,.376,.7148,.1074,1.4668,.1611,2.2559,.1611h.8594c.2852,0,.5723-.0352,.8594-.1074l3.1152-.5371h.1074c.4297,0,.7686,.1445,1.0205,.4297,.25,.2871,.376,.6094,.376,.9668,0,.2871-.0908,.5557-.2686,.8057-.1797,.252-.4131,.4131-.6982,.4834h.1074c-.5742,.1445-1.1465,.2686-1.7188,.376-.5742,.1074-1.1816,.1982-1.8262,.2686l-.8594,.1074,1.9336,7.5195,22.3438-13.6426-1.0742-3.0078c-.0723-.0703-.1074-.1426-.1074-.2148v-.5371c0-.0703,.0352-.1777,.1074-.3223,.0703-.1426,.1611-.2686,.2686-.376s.2686-.1963,.4834-.2686l2.6855-.8594-2.2559-5.2637h-.8594c-1.1465,0-2.3818-.2686-3.7061-.8057-1.3262-.5371-1.9873-1.1982-1.9873-1.9873,0-.7871,.6611-1.4668,1.9873-2.041,1.3242-.5723,2.5596-.8594,3.7061-.8594,1.2168,0,2.0039,.2871,2.3633,.8594,.3574,.5742,.5371,1.2539,.5371,2.041,0,.0723-.0186,.1797-.0537,.3223-.0371,.1445-.0186,.2148,.0537,.2148,.0703,.0723,.1074,.1445,.1074,.2148l3.2227,7.627c.0703,.0723,.1074,.1611,.1074,.2686v.5371c0,.1074-.0371,.1982-.1074,.2686-.0723,.1445-.1797,.2871-.3223,.4297-.1445,.1445-.2871,.252-.4297,.3223l-2.793,.9668,2.793,7.627v.1074l2.9004,8.0566h-.1074c.5723-.1426,1.1445-.25,1.7188-.3223,.5723-.0703,1.1816-.1074,1.8262-.1074h.1074Zm-51.8848,24.1699c2.6484,0,4.958-.876,6.9287-2.6318,1.9688-1.7539,3.1318-3.9209,3.4912-6.499h-10.4199c-.3594,0-.6816-.1426-.9668-.4297-.2871-.2852-.4297-.6074-.4297-.9668,0-.2148,.0703-.4297,.2148-.6445,.1426-.2148,.2852-.3926,.4297-.5371l8.916-5.4785c-1.0039-1.1445-2.2021-2.0762-3.5986-2.793-1.3965-.7148-2.9189-1.0742-4.5654-1.0742-2.9375,0-5.4248,1.0205-7.4658,3.0615s-3.0615,4.5303-3.0615,7.4658c0,2.9375,1.0205,5.4248,3.0615,7.4658s4.5283,3.0615,7.4658,3.0615Zm10.4199-11.9238c-.0723-.5-.1797-1.002-.3223-1.5039-.1445-.5-.3223-.9668-.5371-1.3965l-4.7266,2.9004h5.5859Zm5.3711,0c.2148-.5723,.5-1.0742,.8594-1.5039,.3574-.4297,.7871-.8223,1.2891-1.1816l-1.1816-4.6191-4.5117,2.793v-.1074c.3574,.7168,.6445,1.4688,.8594,2.2559,.2148,.7891,.3574,1.5762,.4297,2.3633h2.2559Zm7.5195,3.3301c.1426-.2148,.2686-.4463,.376-.6982,.1074-.25,.1611-.5186,.1611-.8057,0-.7871-.2871-1.4668-.8594-2.041-.5742-.5723-1.2539-.8594-2.041-.8594-.8594,0-1.5576,.2871-2.0947,.8594-.5371,.5742-.8057,1.2539-.8057,2.041,0,.7891,.2686,1.4688,.8057,2.041,.5371,.5742,1.2354,.8594,2.0947,.8594h.4297l-1.5039-2.041c-.0723-.1426-.126-.2686-.1611-.376-.0371-.1074-.0537-.2314-.0537-.376,0-.2148,.0537-.4111,.1611-.5908,.1074-.1777,.2314-.3037,.376-.376,.0703-.0703,.1777-.124,.3223-.1611,.1426-.0352,.2852-.0537,.4297-.0537,.2148,0,.4111,.0537,.5908,.1611,.1777,.1074,.3037,.2334,.376,.376l1.3965,2.1484v-.1074Zm19.2285-23.3105l-.8594-2.4707-22.5586,13.75,1.3965,5.1562h.4297c.4297,0,.8594,.0537,1.2891,.1611s.7871,.2686,1.0742,.4834l19.2285-17.0801Zm9.2383,31.9043c2.9355,0,5.4248-1.0205,7.4658-3.0615s3.0615-4.5283,3.0615-7.4658c0-2.9355-1.0205-5.4248-3.0615-7.4658s-4.5303-3.0615-7.4658-3.0615c-.4297,0-.8242,.0186-1.1816,.0537-.3594,.0371-.7168,.0908-1.0742,.1611l3.5449,9.8828c0,.0723,.0166,.1445,.0537,.2148,.0352,.0723,.0537,.1445,.0537,.2148,0,.3594-.1445,.6816-.4297,.9668-.2871,.2871-.6094,.4297-.9668,.4297-.2871,0-.5371-.0889-.752-.2686-.2148-.1777-.3945-.4111-.5371-.6982l-3.5449-9.7754h-.1074c-1.6484,.9316-2.9912,2.2207-4.0283,3.8672-1.0391,1.6484-1.5576,3.4746-1.5576,5.4785,0,2.9375,1.0371,5.4248,3.1152,7.4658,2.0762,2.041,4.5469,3.0615,7.4121,3.0615Z"/></g></svg>