<?xml version="1.0" encoding="UTF-8"?><svg xmlns="http://www.w3.org/2000/svg" viewBox="0 0 120 79.3333"><defs><style>.c{fill:#cf0a2c;}</style></defs><g id="a"/><g id="b"><path class="c" d="M93.3008,33.4707c5.5137,0,10.2217,1.9521,14.126,5.8545,3.9023,3.9043,5.8545,8.5771,5.8545,14.0186,0,5.5156-1.9521,10.2236-5.8545,14.126-3.9043,3.9043-8.6123,5.8545-14.126,5.8545s-10.2051-1.9502-14.0723-5.8545c-3.8672-3.9023-5.8008-8.6104-5.8008-14.126,0-3.5801,.8594-6.8564,2.5781-9.8291,1.7188-2.9707,4.0449-5.3525,6.9824-7.1436l-3.5449-8.2715-.4297,.1074-1.0742-2.1484h-.1074c-.8594,.2871-1.6836,.6445-2.4707,1.0742-.7891,.4297-1.541,.9316-2.2559,1.5039l.3223-.6445c-1.2188,2.0781-2.4355,4.2266-3.6523,6.4453-1.2188,2.2207-2.4355,4.6562-3.6523,7.3047-1.2188,2.3633-2.1855,4.2803-2.9004,5.7471-.7168,1.4688-1.2539,2.417-1.6113,2.8467-.2148,.2871-.4297,.5371-.6445,.752s-.502,.3945-.8594,.5371c.1426,.2871,.2314,.5742,.2686,.8594,.0352,.2871,.0537,.5742,.0537,.8594,0,.7891-.1445,1.5225-.4297,2.2021-.2871,.6816-.6816,1.2725-1.1816,1.7725l2.5781,3.8672h1.7188c.3574,0,.6445,.126,.8594,.376,.2148,.252,.3223,.5557,.3223,.9131,0,.2871-.1074,.5557-.3223,.8057-.2148,.252-.502,.376-.8594,.376h-5.2637c-.3594,0-.6445-.124-.8594-.376-.2148-.25-.3223-.5186-.3223-.8057,0-.3574,.1074-.6611,.3223-.9131,.2148-.25,.5-.376,.8594-.376h.752l-1.7188-2.5781c-.2871,.1445-.6094,.252-.9668,.3223-.3594,.0723-.7168,.1074-1.0742,.1074-1.4336,0-2.6504-.4463-3.6523-1.3428-1.0039-.8945-1.6484-1.9873-1.9336-3.2764h-2.6855c-.2871,5.3008-2.3467,9.7754-6.1768,13.4277-3.832,3.6523-8.3975,5.4785-13.6963,5.4785-5.5156,0-10.2236-1.9502-14.126-5.8545-3.9043-3.9023-5.8545-8.6104-5.8545-14.126,0-5.4414,1.9502-10.1143,5.8545-14.0186,3.9023-3.9023,8.6104-5.8545,14.126-5.8545,3.6523,0,6.999,.9131,10.0439,2.7393,3.043,1.8262,5.4248,4.2432,7.1436,7.251l4.5117-2.3633c-.2148-.7871-.4668-1.5928-.752-2.417-.2871-.8223-.6094-1.665-.9668-2.5244-.3594-1.0742-.7354-2.1836-1.1279-3.3301-.3945-1.1445-.8057-2.3262-1.2354-3.5449l-4.1895-11.4941h-3.5449c-.1445,0-.2686-.0166-.376-.0537-.1074-.0352-.1982-.0889-.2686-.1611-1.0742-.7871-1.665-1.4316-1.7725-1.9336-.1074-.5-.0908-.8945,.0537-1.1816,.2852-.5,.752-.7334,1.3965-.6982,.6445,.0371,1.3242,.1611,2.041,.376l-.4297-.1074c1.7891,.4297,3.6338,.7891,5.5322,1.0742,1.8965,.2871,3.8486,.502,5.8545,.6445,.2852,0,.5371,.1074,.752,.3223s.3223,.4668,.3223,.752c0,.2871-.1074,.5205-.3223,.6982-.2148,.1797-.4668,.2686-.752,.2686h-6.4453l3.9746,10.8496c.0703,.3594,.1611,.6982,.2686,1.0205s.2314,.6631,.376,1.0205c.3574,.6445,.8223,1.165,1.3965,1.5576,.5723,.3945,1.252,.5908,2.041,.5908,1.4316,.1445,3.6523-.6611,6.6602-2.417,3.0078-1.7539,5.9434-3.3467,8.8086-4.7803,1.1445-.5723,3.043-1.3965,5.6934-2.4707,2.6484-1.0742,3.8672-1.8965,3.6523-2.4707v-.1074l.4297-.2148-1.2891-2.9004,.9668-1.3965h2.2559l-2.3633-1.9336c-.1445-.0703-.2334-.1777-.2686-.3223-.0371-.1426-.0537-.2852-.0537-.4297,0-.0703,.0166-.1611,.0537-.2686,.0352-.1074,.0889-.2314,.1611-.376,.0703-.0703,.1777-.1426,.3223-.2148,.1426-.0703,.2852-.1074,.4297-.1074,.0703,0,.1611,.0186,.2686,.0537,.1074,.0371,.2314,.0908,.376,.1611l4.5117,3.7598-.6445,1.7188-3.5449-.1074,.6445,1.3965,.4297-.2148,3.9746,7.7344-.3223,.1074,3.4375,8.3789h-.1074c1.2891-.6445,2.667-1.1279,4.1357-1.4502,1.4668-.3223,2.9541-.4834,4.458-.4834Zm-55.3223,31.2598c1.3594-1.3594,2.4336-2.917,3.2227-4.6729,.7871-1.7539,1.252-3.6338,1.3965-5.6396h-15.8984c-.2871,0-.5205-.1074-.6982-.3223-.1797-.2148-.2686-.4297-.2686-.6445s.0352-.3926,.1074-.5371c.0703-.1426,.1777-.25,.3223-.3223l14.2871-7.3047h-.1074c-.2871-.5723-.6445-1.1279-1.0742-1.665s-.8594-1.0557-1.2891-1.5576c-1.4336-1.4316-3.1152-2.5596-5.0488-3.3838-1.9336-.8223-4.0117-1.2354-6.2305-1.2354-4.4414,0-8.2178,1.5576-11.333,4.6729s-4.6729,6.8936-4.6729,11.333c0,4.3691,1.5576,8.1289,4.6729,11.2793,3.1152,3.1523,6.8916,4.7266,11.333,4.7266,2.2188,0,4.2969-.4297,6.2305-1.2891s3.6152-2.0039,5.0488-3.4375Zm-7.1973-12.3535h11.8164c-.0723-1.002-.2148-1.9502-.4297-2.8467-.2148-.8945-.502-1.7354-.8594-2.5244l-10.5273,5.3711Zm14.0723-7.0898l-.1074-.2148c.5723,1.1465,1.002,2.3281,1.2891,3.5449,.2852,1.2188,.4648,2.5078,.5371,3.8672h2.5781c.0703-.5,.2148-.9834,.4297-1.4502,.2148-.4648,.5-.876,.8594-1.2354v-.1074c-.1445-1.1445-.3408-2.2725-.5908-3.3838-.252-1.1094-.5205-2.165-.8057-3.1689l-4.2969,2.1484h.1074Zm5.2637-8.2715c-.0723,.2148-.126,.4297-.1611,.6445-.0371,.2148-.0537,.4297-.0537,.6445v.5908c0,.1797,.0352,.3408,.1074,.4834,.0703,.1445,.124,.2871,.1611,.4297,.0352,.1445,.0889,.2871,.1611,.4297l1.0742-.5371-1.3965-2.5781,.1074-.1074Zm19.7656-8.4863c.1426-.1426,.2314-.3223,.2686-.5371,.0352-.2148,.0537-.4297,.0537-.6445v-.4297c-.0723-.0703-.1797-.1074-.3223-.1074-.1445,0-.3594,.0371-.6445,.1074-.2148,.1445-1.0039,.4834-2.3633,1.0205-1.3613,.5371-2.1133,.8779-2.2559,1.0205-.2148,.1445-.5908,.6631-1.1279,1.5576-.5371,.8965-1.0205,1.5576-1.4502,1.9873l.6445,.8594-.6445,.4297-4.834,3.6523-1.2891-1.7188,.9668,1.2891-3.4375,2.4707,.1074,.3223v-.1074c.0703,.0723,.1074,.1445,.1074,.2148v.2148c0,.2148-.0537,.3945-.1611,.5371-.1074,.1445-.2334,.2871-.376,.4297l-2.3633,1.0742-.1074-.3223c.3574,1.0039,.6611,2.041,.9131,3.1152,.25,1.0742,.4834,2.2207,.6982,3.4375h-.1074c.4297-.2148,.8594-.376,1.2891-.4834s.8594-.1611,1.2891-.1611c.7871,0,1.5205,.1611,2.2021,.4834,.6797,.3223,1.2705,.7354,1.7725,1.2354l.376-.376,.2686-.2686c.2148-.4297,.752-1.4502,1.6113-3.0615s1.7188-3.3115,2.5781-5.1025c1.5039-3.0781,2.7744-5.6025,3.8135-7.5732,1.0371-1.9688,1.8428-3.4541,2.417-4.458l.1074-.1074Zm-18.2617,6.9824l1.0742,2.5781,3.1152-2.2559-.3223-.5371,5.1562-3.7598c-.0723-.0703-.126-.124-.1611-.1611-.0371-.0352-.0908-.0537-.1611-.0537h-.3223c-.1445,0-.2686,.0186-.376,.0537-.1074,.0371-.1982,.0908-.2686,.1611-.1445,.0723-1.3613,.6816-3.6523,1.8262-2.293,1.1465-3.6172,1.8633-3.9746,2.1484h-.1074Zm5.8008,19.5508h-.1074c.1426-.2148,.2686-.4648,.376-.752,.1074-.2852,.1611-.5723,.1611-.8594v-.1074c0-.8594-.3057-1.5928-.9131-2.2021-.6094-.6074-1.3428-.9131-2.2021-.9131s-1.5947,.3057-2.2021,.9131c-.6094,.6094-.9131,1.3428-.9131,2.2021s.3037,1.5947,.9131,2.2021c.6074,.6094,1.3428,.9131,2.2021,.9131h.5371l-1.5039-2.3633c-.0723-.1426-.126-.2686-.1611-.376-.0371-.1074-.0537-.2314-.0537-.376,0-.2148,.0537-.4111,.1611-.5908,.1074-.1777,.2314-.3037,.376-.376,.0703-.0703,.1777-.124,.3223-.1611,.1426-.0352,.25-.0537,.3223-.0537,.2148,0,.4111,.0537,.5908,.1611,.1777,.1074,.3389,.2334,.4834,.376l1.5039,2.4707,.1074-.1074Zm47.2656,9.668c1.4316-1.4316,2.5596-3.1152,3.3838-5.0488,.8223-1.9336,1.2354-3.9746,1.2354-6.123v-.2148c0-4.3672-1.5576-8.127-4.6729-11.2793-3.1152-3.1504-6.8936-4.7266-11.333-4.7266-1.2188,0-2.417,.1445-3.5986,.4297-1.1816,.2871-2.2744,.6816-3.2764,1.1816l5.5859,12.998,1.6113,.3223c.2148,.0723,.3926,.1982,.5371,.376,.1426,.1797,.2148,.376,.2148,.5908,0,.2871-.1074,.5371-.3223,.752s-.4297,.3223-.6445,.3223h-.5371l-1.9336,.752-6.4453-15.0391v.1074c-.4297,.2871-.8594,.5908-1.2891,.9131s-.8242,.6631-1.1816,1.0205c-1.4336,1.4336-2.5781,3.1338-3.4375,5.1025-.8594,1.9707-1.2891,4.0654-1.2891,6.2842,0,4.3691,1.5742,8.1289,4.7266,11.2793,3.1504,3.1523,6.9453,4.7266,11.3867,4.7266,2.1484,0,4.2061-.4297,6.1768-1.2891,1.9688-.8594,3.6689-2.0039,5.1025-3.4375Z"/></g></svg>