<?xml version="1.0" encoding="UTF-8"?><svg xmlns="http://www.w3.org/2000/svg" viewBox="0 0 120 79.3333"><defs><style>.c{fill:#cf0a2c;}</style></defs><g id="a"/><g id="b"><path class="c" d="M91.6357,30.1406h.1074c2.9355,0,5.7285,.5742,8.3789,1.7188,2.5781,1.0742,4.8506,2.5967,6.8213,4.5654,1.9688,1.9707,3.5264,4.2432,4.6729,6.8213,1.0742,2.6504,1.6113,5.4785,1.6113,8.4863,0,2.9375-.5371,5.7305-1.6113,8.3789-1.1465,2.6504-2.7041,4.9414-4.6729,6.875-1.9707,1.9336-4.2432,3.4746-6.8213,4.6191-2.6504,1.1465-5.4434,1.7188-8.3789,1.7188-3.0078,0-5.8379-.5723-8.4863-1.7188-2.5781-1.1445-4.8525-2.6855-6.8213-4.6191-1.9707-1.9336-3.5283-4.2246-4.6729-6.875-1.0742-2.6484-1.6113-5.4414-1.6113-8.3789,0-4.2246,1.0742-8.0381,3.2227-11.4404,2.1484-3.4004,5.0117-5.9971,8.5938-7.7881v-.3223l-1.0742-3.4375-19.7656,22.1289c.5,.4297,.876,.9854,1.1279,1.665,.25,.6816,.376,1.3799,.376,2.0947,0,.7891-.1445,1.5225-.4297,2.2021-.2871,.6816-.6816,1.2725-1.1816,1.7725l2.5781,3.8672h0c.3574,0,.6445,.126,.8594,.376,.2148,.252,.3223,.5205,.3223,.8057,0,.3594-.1074,.6631-.3223,.9131-.2148,.252-.502,.376-.8594,.376h-2.9004c-.3594,0-.6445-.124-.8594-.376-.2148-.25-.3223-.5537-.3223-.9131,0-.2852,.1074-.5537,.3223-.8057,.2148-.25,.5-.376,.8594-.376h0l-1.7188-2.5781c-.2871,.1445-.6094,.252-.9668,.3223-.3594,.0723-.7168,.1074-1.0742,.1074-1.3613,0-2.5781-.4648-3.6523-1.3965-1.0742-.9297-1.7188-2.041-1.9336-3.3301l-1.7188-.2148v.1074c-.8594,5.0859-3.2949,9.3291-7.3047,12.7295-4.0117,3.4023-8.666,5.1025-13.9648,5.1025-3.0078,0-5.8008-.5723-8.3789-1.7188-2.6504-1.1445-4.96-2.7021-6.9287-4.6729-1.9707-1.9688-3.4912-4.2432-4.5654-6.8213-1.1465-2.6484-1.7188-5.4785-1.7188-8.4863,0-2.9355,.5723-5.7285,1.7188-8.3789,1.0742-2.6484,2.5947-4.9414,4.5654-6.875,1.9688-1.9336,4.2783-3.4727,6.9287-4.6191,2.5781-1.1445,5.3711-1.7188,8.3789-1.7188,2.5781,0,5.0117,.4131,7.3047,1.2354,2.291,.8242,4.332,1.9873,6.123,3.4912,.6445-.8594,1.2705-1.7354,1.8799-2.6318,.6074-.8945,1.1982-1.8076,1.7725-2.7393l-4.6191-13.1055v-.4297h-3.4375c-.1445,0-.2686-.0166-.376-.0537-.1074-.0352-.1982-.0889-.2686-.1611-1.0742-.8594-1.665-1.5205-1.7725-1.9873-.1074-.4648-.0908-.8408,.0537-1.1279,.2852-.5723,.7686-.8223,1.4502-.752,.6797,.0723,1.3779,.1797,2.0947,.3223h-.4297c1.8613,.4297,3.7764,.8057,5.7471,1.1279,1.9688,.3223,3.9912,.5205,6.0693,.5908,.2852,0,.5371,.1074,.752,.3223s.3223,.4668,.3223,.752c0,.2871-.1074,.5371-.3223,.752s-.4668,.3223-.752,.3223h-5.9082l2.3633,6.6602,32.1191-2.041-1.0742-3.4375c-.0723-.0703-.1074-.1777-.1074-.3223v-.4297c0-.4297,.1426-.7871,.4297-1.0742,.2852-.2852,.6445-.4297,1.0742-.4297h13.8574c1.2891,0,2.3984,.4482,3.3301,1.3428,.9297,.8965,1.3965,2.0244,1.3965,3.3838,0,1.2891-.4668,2.3818-1.3965,3.2764-.9316,.8965-2.041,1.3428-3.3301,1.3428h-4.6191c-.4297,0-.8057-.1426-1.1279-.4297-.3223-.2852-.4834-.6445-.4834-1.0742s.1611-.8057,.4834-1.1279,.6982-.4834,1.1279-.4834h4.6191c.4297,0,.8057-.1426,1.1279-.4297,.3223-.2852,.4834-.6445,.4834-1.0742,0-.5-.1611-.8945-.4834-1.1816-.3223-.2852-.6982-.4297-1.1279-.4297h-11.2793l3.2227,13.3203h-.1074c1.1445-.3574,2.3262-.6611,3.5449-.9131,1.2168-.25,2.4707-.376,3.7598-.376l-.2148,.1074ZM28.4717,68.8125c4.1523,0,7.8047-1.3057,10.957-3.9209,3.1504-2.6133,5.1191-5.9248,5.9082-9.9365l-14.8242-1.5039c-.2148,.2871-.502,.5205-.8594,.6982-.3594,.1797-.752,.2686-1.1816,.2686h-.1074c-.7891,0-1.4502-.2686-1.9873-.8057s-.8057-1.1631-.8057-1.8799c0-.7148,.2686-1.3428,.8057-1.8799s1.1982-.8057,1.9873-.8057c.1426,0,.3223,.0186,.5371,.0537,.2148,.0371,.3926,.0908,.5371,.1611,1.7188-1.7188,3.3838-3.4727,4.9951-5.2637,1.6113-1.7891,3.2041-3.6875,4.7803-5.6934l.1074,.1074c-1.5039-1.2168-3.1875-2.1836-5.0488-2.9004-1.8633-.7148-3.832-1.0742-5.9082-1.0742-4.7266,0-8.7734,1.6836-12.1387,5.0488-3.3672,3.3672-5.0488,7.4121-5.0488,12.1387,0,4.7988,1.6816,8.8623,5.0488,12.1924,3.3652,3.3301,7.4121,4.9951,12.1387,4.9951h.1074Zm17.1875-17.0801c0-2.291-.4131-4.4395-1.2354-6.4453-.8242-2.0039-1.9521-3.7598-3.3838-5.2637l-.2148,.2148c-1.4336,1.791-2.9189,3.5283-4.458,5.21-1.541,1.6836-3.1338,3.3486-4.7803,4.9951l14.0723,1.3965v-.1074Zm-1.8262-15.3613c1.9336,2.0059,3.4727,4.3154,4.6191,6.9287,1.1445,2.6152,1.7188,5.3896,1.7188,8.3252v.6445l1.8262,.2148c.1426-.3574,.3037-.6797,.4834-.9668,.1777-.2852,.376-.5371,.5908-.752l-6.4453-18.4766c-.502,.7168-.9854,1.415-1.4502,2.0947-.4668,.6816-.9131,1.3428-1.3428,1.9873Zm36.0938-10.957v-.1074l-.4297-1.7188-32.0117,2.041,8.2715,23.6328h-.1074c.2852-.0703,.5371-.124,.752-.1611,.2148-.0352,.4648-.0537,.752-.0537,.2148,0,.4463,.0186,.6982,.0537,.25,.0371,.4834,.0908,.6982,.1611l21.2695-23.8477h.1074Zm-19.7656,29.2188v-.2148c0-.3574-.0537-.6982-.1611-1.0205s-.2686-.5908-.4834-.8057c-.0723-.1426-.1445-.25-.2148-.3223-.0723-.0703-.1445-.1426-.2148-.2148-.0723-.0703-.1611-.124-.2686-.1611-.1074-.0352-.1982-.0889-.2686-.1611h-.1074c-.0723,0-.1445-.0166-.2148-.0537-.0723-.0352-.1445-.0889-.2148-.1611h-.8594c-.8594,.0723-1.5947,.3945-2.2021,.9668-.6094,.5742-.9131,1.2891-.9131,2.1484v.6445c.0703,.0723,.124,.1611,.1611,.2686,.0352,.1074,.0537,.1982,.0537,.2686,.2148,.5742,.5723,1.0391,1.0742,1.3965,.5,.3594,1.0742,.5371,1.7188,.5371h.5371l-1.5039-2.3633c-.0723-.1426-.126-.2686-.1611-.376-.0371-.1074-.0537-.2314-.0537-.376,0-.2852,.124-.5537,.376-.8057,.25-.25,.5186-.376,.8057-.376,.2148,0,.4111,.0537,.5908,.1611,.1777,.1074,.3389,.2334,.4834,.376l1.5039,2.3633c.1426-.2148,.2686-.4648,.376-.752,.1074-.2852,.1611-.5723,.1611-.8594v-.1074Zm31.6895,14.2871c4.7266,0,8.7715-1.665,12.1387-4.9951,3.3652-3.3301,5.0488-7.3936,5.0488-12.1924,0-4.7266-1.6836-8.7715-5.0488-12.1387-3.3672-3.3652-7.4121-5.0488-12.1387-5.0488-1.0742,0-2.1318,.1074-3.1689,.3223-1.0391,.2148-1.9873,.502-2.8467,.8594,.5723,2.2207,1.3057,4.6377,2.2021,7.251,.8945,2.6152,1.8799,4.6729,2.9541,6.1768,.1426,0,.2686-.0166,.376-.0537,.1074-.0352,.2686-.0537,.4834-.0537,.7148,0,1.3428,.2686,1.8799,.8057s.8057,1.165,.8057,1.8799c0,.7168-.2686,1.3428-.8057,1.8799s-1.165,.8057-1.8799,.8057c-.7891,0-1.4502-.2686-1.9873-.8057s-.8057-1.1631-.8057-1.8799c0-.2148,.0166-.3926,.0537-.5371,.0352-.1426,.0889-.2852,.1611-.4297-1.2891-1.7188-2.4541-3.9209-3.4912-6.6064-1.0391-2.6855-1.8799-5.1025-2.5244-7.251h-.1074c-2.5078,1.5039-4.5303,3.5635-6.0693,6.1768-1.541,2.6152-2.3096,5.4971-2.3096,8.6475,0,4.7266,1.665,8.7549,4.9951,12.085s7.3584,5.0322,12.085,5.1025Z"/></g></svg>